<?xml version="1.0" encoding="UTF-8"?>
<!--Generator: Apple Native CoreSVG 175.5-->
<!DOCTYPE svg
PUBLIC "-//W3C//DTD SVG 1.1//EN"
       "http://www.w3.org/Graphics/SVG/1.1/DTD/svg11.dtd">
<svg version="1.1" xmlns="http://www.w3.org/2000/svg" xmlns:xlink="http://www.w3.org/1999/xlink" width="7.49219" height="8.26172">
 <g>
  <rect height="8.26172" opacity="0" width="7.49219" x="0" y="0"/>
  <path d="M2.68359 8.25781L3.43359 8.25781C5.08594 8.25781 6.11719 7.39062 6.11719 6L6.11719 1.08203C6.11719 0.382812 4.8125 0 3.05859 0C1.30469 0 0 0.382812 0 1.08203L0 6C0 7.39062 1.03516 8.25781 2.68359 8.25781ZM2.68359 7.66797C1.39453 7.66797 0.589844 7.02734 0.589844 6L0.589844 1.53516C1.12891 1.75391 2.03125 1.84766 3.05859 1.84766C4.08594 1.84766 4.98828 1.75391 5.52734 1.53516L5.52734 6C5.52734 7.02734 4.72266 7.66797 3.43359 7.66797ZM3.05859 1.29688C1.69141 1.29688 0.746094 1.14844 0.746094 0.925781C0.746094 0.703125 1.69141 0.550781 3.05859 0.550781C4.42578 0.550781 5.37109 0.703125 5.37109 0.925781C5.37109 1.14844 4.42578 1.29688 3.05859 1.29688ZM5.70312 5.92969L6.35156 5.92969C7.04688 5.92969 7.49219 5.46094 7.49219 4.76172L7.49219 3.19922C7.49219 2.49609 7.04688 2.03125 6.35156 2.03125L5.70312 2.03125L5.70312 2.62109L6.35156 2.62109C6.74609 2.62109 6.90234 2.78125 6.90234 3.19922L6.90234 4.76172C6.90234 5.17578 6.74609 5.33984 6.35156 5.33984L5.70312 5.33984Z" fill="#ffffff" fill-opacity="0.85"/>
 </g>
</svg>
