<?xml version="1.0" encoding="UTF-8"?>
<!--Generator: Apple Native CoreSVG 175.5-->
<!DOCTYPE svg
PUBLIC "-//W3C//DTD SVG 1.1//EN"
       "http://www.w3.org/Graphics/SVG/1.1/DTD/svg11.dtd">
<svg version="1.1" xmlns="http://www.w3.org/2000/svg" xmlns:xlink="http://www.w3.org/1999/xlink" width="33.7148" height="37.1777">
 <g>
  <rect height="37.1777" opacity="0" width="33.7148" x="0" y="0"/>
  <path d="M12.0762 37.1602L15.4512 37.1602C22.8867 37.1602 27.5273 33.2578 27.5273 27L27.5273 4.86914C27.5273 1.72266 21.6562 0 13.7637 0C5.87109 0 0 1.72266 0 4.86914L0 27C0 33.2578 4.6582 37.1602 12.0762 37.1602ZM12.0762 34.5059C6.27539 34.5059 2.6543 31.623 2.6543 27L2.6543 6.9082C5.08008 7.89258 9.14062 8.31445 13.7637 8.31445C18.3867 8.31445 22.4473 7.89258 24.873 6.9082L24.873 27C24.873 31.623 21.252 34.5059 15.4512 34.5059ZM13.7637 5.83594C7.61133 5.83594 3.35742 5.16797 3.35742 4.16602C3.35742 3.16406 7.61133 2.47852 13.7637 2.47852C19.916 2.47852 24.1699 3.16406 24.1699 4.16602C24.1699 5.16797 19.916 5.83594 13.7637 5.83594ZM25.6641 26.6836L28.582 26.6836C31.7109 26.6836 33.7148 24.5742 33.7148 21.4277L33.7148 14.3965C33.7148 11.2324 31.7109 9.14062 28.582 9.14062L25.6641 9.14062L25.6641 11.7949L28.582 11.7949C30.3574 11.7949 31.0605 12.5156 31.0605 14.3965L31.0605 21.4277C31.0605 23.291 30.3574 24.0293 28.582 24.0293L25.6641 24.0293Z" fill="#ffffff" fill-opacity="0.85"/>
 </g>
</svg>
